<?xml version="1.0" encoding="UTF-8" standalone="no"?>
<svg
   xmlns:dc="http://purl.org/dc/elements/1.1/"
   xmlns:cc="http://creativecommons.org/ns#"
   xmlns:rdf="http://www.w3.org/1999/02/22-rdf-syntax-ns#"
   xmlns:svg="http://www.w3.org/2000/svg"
   xmlns="http://www.w3.org/2000/svg"
   xmlns:sodipodi="http://sodipodi.sourceforge.net/DTD/sodipodi-0.dtd"
   xmlns:inkscape="http://www.inkscape.org/namespaces/inkscape"
   inkscape:version="1.1-dev (f9311a1, 2019-12-25)"
   sodipodi:docname="graphql-io-logo.svg"
   xml:space="preserve"
   enable-background="new 0 0 1515.216 1517.351"
   viewBox="0 0 1515.216 1517.351"
   y="0px"
   x="0px"
   id="Layer_1"
   version="1.1"><metadata
   id="metadata936"><rdf:RDF><cc:Work
       rdf:about=""><dc:format>image/svg+xml</dc:format><dc:type
         rdf:resource="http://purl.org/dc/dcmitype/StillImage" /></cc:Work></rdf:RDF></metadata><defs
   id="defs934" /><sodipodi:namedview
   inkscape:current-layer="Layer_1"
   inkscape:window-maximized="0"
   inkscape:window-y="23"
   inkscape:window-x="0"
   inkscape:cy="654.48457"
   inkscape:cx="608.3174"
   inkscape:zoom="0.57270864"
   showgrid="false"
   id="namedview932"
   inkscape:window-height="1035"
   inkscape:window-width="1920"
   inkscape:pageshadow="2"
   inkscape:pageopacity="0"
   guidetolerance="10"
   gridtolerance="10"
   objecttolerance="10"
   borderopacity="1"
   inkscape:document-rotation="0"
   bordercolor="#666666"
   pagecolor="#ffffff" />
<path
   id="path751"
   d="M744.004,1490.622c-46.799-9.064-84.775-36.105-123.738-61.011c-22.962-14.678-47.649-21.403-74.939-20.08  c-25.122,1.217-50.297,1.547-75.454,1.794c-59.296,0.583-103.265-25.649-132.372-76.953c-11.236-19.805-22.198-39.796-32.423-60.136  c-13.366-26.59-32.758-46.573-59.477-59.942c-22.122-11.069-43.989-22.725-65.434-35.05c-50.59-29.075-74.599-73.713-74.611-131.523  c-0.005-22.396,0.336-44.849,1.937-67.174c2.455-34.222-8.004-63.958-27.041-91.886c-13.248-19.435-25.472-39.693-36.635-60.401  c-25.061-46.492-24.198-93.558,0.759-139.792c10.994-20.366,23.002-40.307,36.065-59.404c20.704-30.268,28.441-63.031,25.439-99.406  c-1.935-23.451-1.993-47.157-1.317-70.703c1.397-48.64,22.781-86.957,63.595-113.394c19.729-12.78,40.268-24.722,61.596-34.531  c36.858-16.951,62.103-43.773,79.278-80.24c11.166-23.708,24.354-46.777,39.209-68.361c24.191-35.151,59.244-53.72,101.687-55.855  c28.598-1.439,57.371-0.443,86.026,0.578c27.875,0.992,53.781-3.904,77.604-19.135c22.833-14.599,45.723-29.194,69.32-42.491  c47.526-26.78,96.033-27.29,144.003-1.338c22.773,12.32,44.713,26.257,66.542,40.226c23.586,15.095,48.817,22.903,76.95,21.571  c24.339-1.152,48.704-2.001,73.067-2.342c59.985-0.841,105.201,24.666,134.763,77.05c11.389,20.182,22.604,40.493,33.01,61.193  c13.009,25.877,32.011,45.298,57.827,58.372c19.624,9.939,39.073,20.232,58.457,30.634c57.673,30.95,84.943,79.371,82.9,144.633  c-0.787,25.142-1.244,50.294-1.839,75.442c-0.53,22.365,6.351,42.529,18.163,61.246c12.582,19.937,25.304,39.788,37.624,59.886  c34.344,56.027,33.794,112.139-0.209,168.104c-8.976,14.773-17.397,29.992-27.578,43.905  c-23.623,32.281-30.237,68.131-26.708,107.204c1.869,20.691,1.756,41.637,1.332,62.443c-1.06,52.062-24.367,91.981-68.535,119.119  c-21.055,12.938-42.894,24.745-65.043,35.723c-30.136,14.936-51.781,37.324-66.539,67.422  c-10.88,22.188-22.592,44.063-35.391,65.194c-27.262,45.009-68.514,67.007-120.489,68.511c-24.316,0.704-48.746-0.316-73.045-1.824  c-33.614-2.087-63.312,7.264-91.098,25.901c-28.98,19.439-57.611,39.864-91.752,49.943c-8.231,2.43-16.541,4.594-24.814,6.88  C764.451,1490.622,754.227,1490.622,744.004,1490.622z"
   fill="#D90011" />
<g
   id="g767">
	<path
   id="path753"
   d="M385.5,985.134c-16.321,5.439-42.561,12.16-69.762,12.16c-29.441,0-54.082-7.681-71.682-23.681   c-17.28-15.04-27.201-39.041-27.201-66.562c0-40.321,16.32-75.202,43.841-98.562c24.321-20.16,57.921-31.36,95.362-31.36   c27.841,0,48.641,5.439,56.961,9.6l-13.76,38.722c-9.601-4.48-26.561-8.641-45.761-8.641c-21.44,0-40.321,6.08-54.721,17.28   c-18.88,14.721-31.361,40.321-31.361,69.762c0,36.161,21.44,54.401,55.361,54.401c10.88,0,18.241-1.601,23.681-3.84l8.64-45.441   h-33.601l7.36-36.801h78.402L385.5,985.134z"
   fill="#FFFFFF" />
	<path
   id="path755"
   d="M405.012,995.054l17.601-93.122c4.48-23.681,6.4-49.921,8-63.361h40.001   c-0.96,10.561-1.6,21.12-2.88,32.001h0.96c11.2-20.801,28.48-35.521,49.921-35.521c2.88,0,5.76,0,8.64,0.32l-8.96,44.801   c-2.24-0.319-4.8-0.319-7.36-0.319c-29.441,0-43.201,26.24-48.961,56.961l-10.88,58.241H405.012z"
   fill="#FFFFFF" />
	<path
   id="path757"
   d="M607.257,995.054c0.32-9.28,1.28-19.841,1.92-31.041h-0.64c-14.4,25.921-34.561,34.562-52.801,34.562   c-28.161,0-47.361-21.761-47.361-54.401c0-52.802,35.201-109.123,112.003-109.123c18.88,0,38.721,3.521,51.841,7.681l-16.32,81.922   c-3.84,20.16-7.04,50.881-6.4,70.401H607.257z M620.377,871.211c-3.521-0.64-7.68-1.28-12.48-1.28   c-29.761,0-51.521,36.481-51.521,65.602c0,15.36,6.08,25.921,18.88,25.921c13.76,0,30.721-15.681,38.081-54.081L620.377,871.211z"
   fill="#FFFFFF" />
	<path
   id="path759"
   d="M654.606,1058.415l30.401-159.363c3.52-18.561,7.04-45.762,8.96-61.762h41.281l-2.88,24.001h0.64   c12.8-16.961,31.36-26.241,50.241-26.241c33.92,0,50.561,27.201,50.561,59.521c0,54.081-36.161,104.003-90.882,104.003   c-12.48,0-23.36-3.2-28.8-6.4h-0.96l-12.48,66.241H654.606z M720.528,956.333c5.12,4.479,11.84,7.36,21.121,7.36   c24.641,0,43.841-34.881,43.841-65.602c0-12.48-5.44-25.601-20.16-25.601c-17.281,0-33.281,19.2-39.041,49.921L720.528,956.333z"
   fill="#FFFFFF" />
	<path
   id="path761"
   d="M831.246,995.054l43.201-227.205h46.081l-17.601,90.882h0.64c13.12-14.4,29.44-23.681,49.921-23.681   c24.321,0,39.361,15.36,39.361,42.241c0,7.36-1.28,19.2-2.88,28.16l-16.96,89.603h-46.081l16.32-85.762   c1.28-6.08,1.92-12.801,1.92-19.2c0-10.561-4.16-17.921-15.68-17.921c-16.32,0-32.641,19.841-38.401,51.201l-13.76,71.682H831.246z   "
   fill="#FFFFFF" />
	<path
   id="path763"
   d="M1177.486,1033.775c-29.44-8.64-61.441-21.12-80.642-30.4c-10.24-4.48-13.12-5.44-15.36-5.44   c-41.921-2.88-74.882-35.521-74.882-89.922c0-36.48,13.12-74.242,37.441-99.202c21.44-21.44,50.561-32.961,81.282-32.961   c58.241,0,86.722,41.921,86.722,89.922c0,36.481-13.12,75.522-36.16,98.883c-8.641,8.32-19.521,16-31.681,20.8v0.96   c13.12,3.521,31.04,7.681,49.281,10.881L1177.486,1033.775z M1082.764,830.25c-17.601,17.601-27.201,52.801-27.201,77.762   c0,30.4,14.08,52.481,44.801,52.481c14.081,0,26.241-6.08,36.161-15.681c16.641-16.96,26.561-52.801,26.561-78.722   c0-24.32-9.28-51.841-43.201-51.841C1105.165,814.25,1092.684,820.33,1082.764,830.25z"
   fill="#FFFFFF" />
	<path
   id="path765"
   d="M1247.878,779.369h46.081l-33.28,175.363h82.882l-7.681,40.321h-128.963L1247.878,779.369z"
   fill="#FFFFFF" />
</g>
<g
   id="g835">
	<g
   id="g773">
		<g
   id="g771">
			
				<rect
   id="rect769"
   height="18.567"
   width="358.249"
   fill="#FFFFFF"
   transform="matrix(0.5 -0.866 0.866 0.5 -193.1503 560.7722)"
   y="438.378"
   x="209.95" />
		</g>
	</g>
	<g
   id="g779">
		<g
   id="g777">
			<rect
   id="rect775"
   height="18.567"
   width="358.257"
   fill="#FFFFFF"
   y="573.359"
   x="287.789" />
		</g>
	</g>
	<g
   id="g785">
		<g
   id="g783">
			
				<rect
   id="rect781"
   height="206.919"
   width="18.567"
   fill="#FFFFFF"
   transform="matrix(0.5 -0.866 0.866 0.5 -348.8563 650.717)"
   y="524.022"
   x="379.834" />
		</g>
	</g>
	<g
   id="g791">
		<g
   id="g789">
			
				<rect
   id="rect787"
   height="206.919"
   width="18.567"
   fill="#FFFFFF"
   transform="matrix(0.5 -0.866 0.866 0.5 -37.5038 650.7068)"
   y="254.374"
   x="535.502" />
		</g>
	</g>
	<g
   id="g797">
		<g
   id="g795">
			
				<rect
   id="rect793"
   height="18.567"
   width="206.919"
   fill="#FFFFFF"
   transform="matrix(0.866 -0.5 0.5 0.866 -126.7442 242.5213)"
   y="348.479"
   x="285.708" />
		</g>
	</g>
	<g
   id="g803">
		<g
   id="g801">
			
				<rect
   id="rect799"
   height="358.249"
   width="18.567"
   fill="#FFFFFF"
   transform="matrix(0.866 -0.5 0.5 0.866 -150.8296 332.4407)"
   y="268.54"
   x="535.629" />
		</g>
	</g>
	<g
   id="g809">
		<g
   id="g807">
			<rect
   id="rect805"
   height="206.924"
   width="18.567"
   fill="#FFFFFF"
   y="389.141"
   x="301.994" />
		</g>
	</g>
	<g
   id="g815">
		<g
   id="g813">
			<rect
   id="rect811"
   height="206.924"
   width="18.567"
   fill="#FFFFFF"
   y="389.141"
   x="613.386" />
		</g>
	</g>
	<g
   id="g821">
		<g
   id="g819">
			
				<rect
   id="rect817"
   height="16.218"
   width="179.964"
   fill="#FFFFFF"
   transform="matrix(0.866 -0.5 0.5 0.866 -240.7052 356.4548)"
   y="619.269"
   x="454.802" />
		</g>
	</g>
	<path
   id="path823"
   d="M656.56,602.105c-10.738,18.679-34.674,25.055-53.353,14.317c-18.679-10.738-25.055-34.674-14.317-53.353   c10.738-18.679,34.674-25.055,53.353-14.317C661.034,559.602,667.41,583.426,656.56,602.105"
   fill="#FFFFFF" />
	<path
   id="path825"
   d="M344.945,422.137c-10.738,18.679-34.674,25.055-53.353,14.317c-18.679-10.738-25.055-34.674-14.317-53.353   s34.674-25.055,53.353-14.317C349.307,379.634,355.682,403.458,344.945,422.137"
   fill="#FFFFFF" />
	<path
   id="path827"
   d="M277.387,602.105c-10.738-18.679-4.362-42.503,14.317-53.353c18.679-10.738,42.503-4.362,53.353,14.317   c10.738,18.679,4.362,42.503-14.317,53.353C311.949,627.159,288.124,620.784,277.387,602.105"
   fill="#FFFFFF" />
	<path
   id="path829"
   d="M589.002,422.137c-10.738-18.679-4.362-42.503,14.317-53.353c18.679-10.738,42.503-4.362,53.353,14.317   c10.738,18.679,4.362,42.503-14.317,53.353C623.676,447.192,599.74,440.816,589.002,422.137"
   fill="#FFFFFF" />
	<path
   id="path831"
   d="M466.974,711.607c-21.587,0-39.036-17.449-39.036-39.036c0-21.587,17.449-39.036,39.036-39.036   s39.036,17.449,39.036,39.036C506.009,694.046,488.561,711.607,466.974,711.607"
   fill="#FFFFFF" />
	<path
   id="path833"
   d="M466.974,351.671c-21.587,0-39.036-17.449-39.036-39.036s17.449-39.036,39.036-39.036   s39.036,17.449,39.036,39.036S488.561,351.671,466.974,351.671"
   fill="#FFFFFF" />
</g>
<path
   id="path837"
   d="M717.321,992.076l-50.03,263.438h-50.401l50.532-266.083L717.321,992.076z"
   fill="#FFFFFF" />
<path
   id="path839"
   d="M931.19,1114.111c0,43.051-15.05,85.052-42.001,111.302c-22.05,21.351-51.801,33.95-87.151,33.95  c-61.251,0-95.552-43.4-95.552-98.352c0-42.7,15.75-85.051,43.401-111.651c22.05-21,52.151-33.601,86.102-33.601  C898.29,1015.759,931.19,1057.76,931.19,1114.111z M789.438,1075.61c-18.9,18.551-29.401,55.301-29.401,83.651  c0,33.251,15.05,58.102,49.351,58.102c15.05,0,28.7-6.301,39.551-17.15c18.55-18.551,28.7-57.401,28.7-84.702  c0-29.4-10.5-57.751-47.601-57.751C814.288,1057.76,800.288,1064.41,789.438,1075.61z"
   fill="#FFFFFF" />
<g
   id="g907">
	<g
   id="g845">
		<g
   id="g843">
			
				<rect
   id="rect841"
   height="18.567"
   width="358.249"
   fill="#FFFFFF"
   transform="matrix(0.5 -0.866 0.866 0.5 98.4856 1065.9012)"
   y="438.375"
   x="793.229" />
		</g>
	</g>
	<g
   id="g851">
		<g
   id="g849">
			<rect
   id="rect847"
   height="18.567"
   width="358.257"
   fill="#FFFFFF"
   y="573.356"
   x="871.068" />
		</g>
	</g>
	<g
   id="g857">
		<g
   id="g855">
			
				<rect
   id="rect853"
   height="206.919"
   width="18.567"
   fill="#FFFFFF"
   transform="matrix(0.5 -0.866 0.866 0.5 -57.2203 1155.8461)"
   y="524.018"
   x="963.113" />
		</g>
	</g>
	<g
   id="g863">
		<g
   id="g861">
			
				<rect
   id="rect859"
   height="206.919"
   width="18.567"
   fill="#FFFFFF"
   transform="matrix(0.5 -0.866 0.866 0.5 254.1321 1155.8358)"
   y="254.37"
   x="1118.781" />
		</g>
	</g>
	<g
   id="g869">
		<g
   id="g867">
			
				<rect
   id="rect865"
   height="18.567"
   width="206.919"
   fill="#FFFFFF"
   transform="matrix(0.866 -0.5 0.5 0.866 -48.5942 534.1667)"
   y="348.476"
   x="868.987" />
		</g>
	</g>
	<g
   id="g875">
		<g
   id="g873">
			
				<rect
   id="rect871"
   height="358.249"
   width="18.567"
   fill="#FFFFFF"
   transform="matrix(0.866 -0.5 0.5 0.866 -72.6796 624.0862)"
   y="268.537"
   x="1118.908" />
		</g>
	</g>
	<g
   id="g881">
		<g
   id="g879">
			<rect
   id="rect877"
   height="206.924"
   width="18.567"
   fill="#FFFFFF"
   y="389.138"
   x="885.273" />
		</g>
	</g>
	<g
   id="g887">
		<g
   id="g885">
			<rect
   id="rect883"
   height="206.924"
   width="18.567"
   fill="#FFFFFF"
   y="389.138"
   x="1196.665" />
		</g>
	</g>
	<g
   id="g893">
		<g
   id="g891">
			
				<rect
   id="rect889"
   height="16.218"
   width="179.964"
   fill="#FFFFFF"
   transform="matrix(0.866 -0.5 0.5 0.866 -162.5553 648.1002)"
   y="619.266"
   x="1038.081" />
		</g>
	</g>
	<path
   id="path895"
   d="M1239.839,602.101c-10.738,18.679-34.674,25.055-53.353,14.317c-18.679-10.738-25.055-34.674-14.317-53.353   c10.738-18.679,34.674-25.055,53.353-14.317C1244.313,559.598,1250.689,583.422,1239.839,602.101"
   fill="#FFFFFF" />
	<path
   id="path897"
   d="M928.224,422.134c-10.738,18.679-34.674,25.055-53.353,14.317c-18.679-10.738-25.055-34.674-14.317-53.353   c10.738-18.679,34.674-25.055,53.353-14.317C932.586,379.631,938.961,403.455,928.224,422.134"
   fill="#FFFFFF" />
	<path
   id="path899"
   d="M860.666,602.101c-10.738-18.679-4.362-42.503,14.317-53.353c18.679-10.738,42.503-4.362,53.353,14.317   c10.738,18.679,4.362,42.503-14.317,53.353C895.228,627.156,871.403,620.781,860.666,602.101"
   fill="#FFFFFF" />
	<path
   id="path901"
   d="M1172.281,422.134c-10.738-18.679-4.362-42.503,14.317-53.353c18.679-10.738,42.503-4.362,53.353,14.317   c10.738,18.679,4.362,42.503-14.317,53.353C1206.955,447.188,1183.019,440.813,1172.281,422.134"
   fill="#FFFFFF" />
	<path
   id="path903"
   d="M1050.252,711.603c-21.587,0-39.036-17.449-39.036-39.036c0-21.587,17.449-39.036,39.036-39.036   c21.587,0,39.036,17.449,39.036,39.036C1089.288,694.043,1071.84,711.603,1050.252,711.603"
   fill="#FFFFFF" />
	<path
   id="path905"
   d="M1050.252,351.668c-21.587,0-39.036-17.449-39.036-39.036s17.449-39.036,39.036-39.036   c21.587,0,39.036,17.449,39.036,39.036S1071.84,351.668,1050.252,351.668"
   fill="#FFFFFF" />
</g>
<polygon
   id="polygon909"
   points="895.774,585.027 622.918,585.027 622.918,493.822 623.063,402.616 895.774,402.616 895.629,493.822   "
   fill="#FFFFFF" />
<g
   id="g917">
	<path
   id="path911"
   d="M741.633,540.99c-3.75,1.95-13.35,4.2-25.349,4.2c-37.798,0-54.448-23.55-54.448-50.549   c0-35.698,26.099-53.848,56.248-53.848c11.549,0,20.999,2.25,25.199,4.5l-5.25,21.299c-4.35-1.8-10.65-3.6-18.75-3.6   c-15.449,0-28.949,9.149-28.949,29.849c0,18.449,10.95,29.849,29.549,29.849c6.45,0,13.799-1.199,17.999-2.85L741.633,540.99z"
   fill="#DD1C21" />
	<path
   id="path913"
   d="M743.135,549.389l27.898-108.745h17.25l-27.899,108.745H743.135z"
   fill="#DD1C21" />
	<path
   id="path915"
   d="M792.033,516.541c6.15,3.15,16.049,6.3,26.249,6.3c9.299,0,13.799-3.149,13.799-8.25   c0-4.949-4.5-7.799-15.899-11.699c-17.099-6-28.499-15.449-28.499-30.448c0-17.85,15.149-31.649,40.648-31.649   c12,0,20.699,2.25,27.299,5.25l-5.7,21.6c-4.35-1.95-11.85-4.8-21.899-4.8c-8.25,0-12.75,2.999-12.75,7.499   c0,5.1,5.4,7.2,18.149,11.85c18.149,6.75,26.249,16.499,26.249,30.599c0,17.399-13.499,32.249-43.048,32.249   c-12.15,0-23.999-3.15-29.699-6.149L792.033,516.541z"
   fill="#DD1C21" />
</g>
<g
   id="g919">
</g>
<g
   id="g921">
</g>
<g
   id="g923">
</g>
<g
   id="g925">
</g>
<g
   id="g927">
</g>
<g
   id="g929">
</g>
<g
   transform="matrix(1.8030963,0,0,1.8382453,864.81992,1018.1347)"
   fill-rule="evenodd"
   clip-rule="evenodd"
   id="g958"><path
     inkscape:connector-curvature="0"
     fill="#fff"
     fill-opacity="0"
     d="M 0,0 H 192.756 V 192.756 H 0 Z"
     id="path938" /><path
     inkscape:connector-curvature="0"
     d="m 136.799,92.606 c -0.898,-1.372 -4.855,-12.398 -4.855,-14.245 0,-1.899 -4.008,-8.072 -5.381,-9.971 -1.318,-1.899 -3.217,-8.072 -3.746,-10.235 -0.527,-2.11 -5.381,-11.026 -5.908,-13.189 -0.58,-2.11 -1.898,-5.909 -4.062,-8.599 -2.162,-2.691 -5.539,-7.492 -5.908,-9.919 -0.422,-2.479 -3.482,-7.808 -5.117,-9.707 -0.58,-0.686 -2.428,-4.432 -4.273,-6.647 -1.531,-1.847 -3.008,-2.638 -4.063,0.738 -1.372,4.273 -3.218,6.964 -4.59,9.391 -1.319,2.427 -6.7,10.499 -7.544,12.925 -0.792,2.427 -6.7,15.353 -8.335,18.571 -1.583,3.218 -12.082,27.698 -12.609,31.497 -0.581,3.746 -4.062,12.873 -6.489,16.144 -2.427,3.219 -6.173,4.802 -8.335,6.173 -2.163,1.319 -9.655,6.173 -12.082,8.072 -2.427,1.898 -8.283,4.432 -9.18,5.908 -0.844,1.478 0,5.804 1.108,7.65 1.055,1.899 5.856,6.595 5.645,9.549 -0.369,1.267 -2.057,2.796 -1.108,3.693 l 2.163,2.269 0.264,8.336 -3.798,0.105 -4.221,2.374 c 0,1.055 -0.738,2.163 -0.158,3.271 0.739,1.319 4.221,3.482 7.386,4.168 1.847,0.369 3.957,0.264 7.069,0.053 0,0 0.105,0.845 0.316,2.11 0.211,1.583 0.528,3.799 0.845,5.539 0.527,3.113 1.477,5.646 2.532,8.178 1.055,2.586 3.746,4.59 5.645,5.118 1.899,0.527 5.487,0.527 7.65,-0.792 2.11,-1.371 12.873,-7.755 16.038,-8.863 3.113,-1.16 9.918,-4.59 19.098,-4.854 9.18,-0.264 17.463,-0.527 25.271,4.854 7.809,5.382 12.979,11.079 17.516,11.818 4.484,0.738 9.074,-1.161 10.92,-2.902 1.795,-1.74 3.061,-5.328 4.326,-10.234 0.738,-3.588 0.158,-8.494 3.113,-7.387 1.318,0.475 3.219,0.422 5.012,0.053 3.377,-0.686 8.494,-4.062 9.707,-5.117 1.215,-1.002 2.691,-3.165 1.9,-4.273 -0.844,-1.107 -5.75,-1.477 -5.75,-1.477 0.105,-4.327 -0.951,-6.121 -3.693,-9.286 l 0.844,-8.335 7.492,-8.863 c 0,0 1.107,-4.327 -1.32,-7.018 -2.426,-2.69 -19.625,-16.936 -19.625,-16.936 0,0 0,-1.635 -2.428,-3.534 -2.429,-1.847 -6.386,-4.801 -7.282,-6.174 z"
     id="path940" /><path
     inkscape:connector-curvature="0"
     d="m 145.398,106.64 c 2.004,0.37 17.357,10.921 16.775,16.514 -0.527,5.645 -5.434,8.863 -5.434,8.863 0,0 -3.271,-0.633 -4.115,0.738 -0.791,1.372 -0.475,3.535 -1.318,3.852 -0.896,0.316 -3.166,-0.264 -3.166,-0.264 0,0 -5.012,-13.506 -5.223,-17.779 -0.157,-4.274 0.687,-9.972 2.481,-11.924 z"
     fill="#fff"
     id="path942" /><path
     inkscape:connector-curvature="0"
     d="m 118.438,87.806 c 0.158,9.127 -11.553,17.516 -22.104,17.516 -10.551,0 -21.737,-6.912 -21.579,-18.572 0.158,-11.66 10.498,-15.51 21.631,-15.51 11.079,0.052 21.841,7.386 22.052,16.566 z"
     fill="#8c5e57"
     id="path944" /><path
     inkscape:connector-curvature="0"
     d="m 35.661,133.282 -6.489,-8.81 c 0,0 -1.847,-2.744 0.105,-3.852 2.005,-1.161 14.983,-10.499 14.983,-10.499 0,0 1.688,-1.213 3.323,0.369 1.636,1.583 1.372,3.271 1.055,5.435 -0.316,2.163 -5.118,19.626 -5.118,19.626 H 42.096 L 38.93,132.543 Z M 64.098,86.75 c 0,0 -7.703,21.683 -9.286,26.907 -1.53,5.275 -6.489,21.525 -7.861,28.594 -1.372,7.07 -3.113,21.262 -2.321,25.957 0.738,4.749 1.318,9.286 4.432,9.972 3.112,0.738 6.806,-2.374 10.499,-4.168 3.64,-1.847 13.242,-7.122 18.096,-8.652 4.854,-1.583 11.817,-3.218 20.47,-2.743 8.652,0.527 19.098,5.486 23.793,8.441 4.01,2.532 16.092,14.982 21.314,4.221 1.582,-3.271 2.533,-14.034 2.059,-23.583 -0.424,-9.55 -6.754,-36.034 -8.916,-45.372 -2.111,-9.338 -7.07,-19.942 -7.07,-19.942 l -7.176,-0.105 c -0.053,0 -0.369,7.914 -3.799,12.082 -3.48,4.221 -10.445,10.341 -21.63,10.234 -11.237,-0.105 -17.515,-5.17 -20.628,-8.547 -3.166,-3.323 -5.064,-9.812 -4.695,-13.875 -0.001,-0.054 -6.121,0.474 -7.281,0.579 z"
     fill="#fff"
     id="path946" /><path
     inkscape:connector-curvature="0"
     d="m 87.733,84.746 c 3.588,-2.321 5.435,-5.909 4.01,-8.072 -1.372,-2.11 -5.381,-1.952 -9.021,0.369 -3.587,2.321 -5.434,5.961 -4.062,8.072 1.371,2.163 5.433,2.005 9.073,-0.369 z"
     fill="#a08591"
     id="path948" /><path
     inkscape:connector-curvature="0"
     d="m 87.258,84.06 c 2.955,-1.899 4.484,-4.854 3.324,-6.648 -1.108,-1.741 -4.432,-1.583 -7.387,0.317 -3.007,1.899 -4.484,4.907 -3.376,6.647 1.161,1.741 4.485,1.636 7.439,-0.316 z"
     fill="#fff"
     id="path950" /><path
     inkscape:connector-curvature="0"
     d="m 91.374,98.885 c 1.794,7.333 12.925,3.482 17.515,0.686 4.59,-2.849 5.488,-9.76 3.957,-12.187 -3.482,-5.54 -9.074,1.266 -12.24,3.271 -3.165,2.057 -10.551,2.954 -9.232,8.23 z"
     fill="#795f50"
     id="path952" /><path
     inkscape:connector-curvature="0"
     d="m 153.521,174.75 v -5.908 h -1.423 v -2.85 h 5.381 v 2.85 h -1.424 v 5.908 z m 11.291,0 -0.316,-3.481 c -0.053,-0.264 -0.053,-0.527 -0.053,-0.792 -0.053,-0.264 -0.053,-0.527 -0.053,-0.791 l -0.158,0.791 c -0.053,0.265 -0.105,0.581 -0.158,0.897 l -0.844,3.376 h -1.531 l -0.791,-3.376 c -0.105,-0.316 -0.158,-0.633 -0.211,-0.897 a 4.05,4.05 0 0 1 -0.105,-0.791 c 0,0.264 -0.053,0.527 -0.053,0.791 0,0.265 -0.053,0.528 -0.053,0.792 l -0.316,3.481 h -2.48 l 1.162,-8.758 h 2.637 l 0.527,2.163 c 0,0.053 0.053,0.158 0.053,0.317 0.211,0.896 0.369,1.635 0.422,2.216 h 0.053 c 0,-0.37 0.053,-0.739 0.158,-1.161 0.055,-0.422 0.16,-0.897 0.316,-1.425 l 0.529,-2.11 h 2.637 l 1.109,8.758 z"
     id="path954" /><path
     inkscape:connector-curvature="0"
     d="m 125.877,86.434 -3.746,-0.053 c -0.053,0 -0.369,7.914 -3.799,12.082 -3.48,4.168 -10.445,10.288 -21.63,10.235 -5.117,-0.053 -9.18,-1.161 -12.397,-2.586 4.59,2.955 10.235,4.537 15.774,4.537 12.557,0 26.484,-9.971 26.273,-20.839 a 17.961,17.961 0 0 0 -0.475,-3.376 z"
     fill="#bbbcbf"
     id="path956" /></g></svg>
