<?xml version="1.0" encoding="UTF-8" standalone="no"?>
<!DOCTYPE svg PUBLIC "-//W3C//DTD SVG 1.1//EN" "http://www.w3.org/Graphics/SVG/1.1/DTD/svg11.dtd">
<svg xmlns:dc="http://purl.org/dc/elements/1.1/" xmlns="http://www.w3.org/2000/svg" version="1.1" xmlns:xl="http://www.w3.org/1999/xlink" viewBox="0 0 1515.216 1517.351" width="1515.216" height="1517.351">
  <defs/>
  <metadata> Produced by OmniGraffle 7.12.1 
    <dc:date>2020-01-24 18:16:41 +0000</dc:date>
  </metadata>
  <g id="Canvas_1" stroke="none" stroke-opacity="1" stroke-dasharray="none" fill="none" fill-opacity="1">
    <title>Canvas 1</title>
    <rect fill="white" x="0" y="0" width="1515.216" height="1517.351"/>
    <g id="Canvas_1: Layer 1">
      <title>Layer 1</title>
      <g id="Graphic_2">
        <path d="M 744.004 1490.622 C 697.205 1481.558 659.229 1454.517 620.266 1429.611 C 597.304 1414.933 572.617 1408.208 545.327 1409.531 C 520.205 1410.748 495.03 1411.078 469.873 1411.325 C 410.577 1411.908 366.608 1385.676 337.501 1334.372 C 326.265 1314.567 315.303 1294.576 305.078 1274.236 C 291.712 1247.646 272.32 1227.663 245.601 1214.294 C 223.479 1203.225 201.612 1191.569 180.167 1179.244 C 129.577 1150.169 105.568 1105.531 105.556 1047.721 C 105.551 1025.325 105.892 1002.872 107.493 980.547 C 109.948 946.325 99.489 916.589 80.452 888.661 C 67.204 869.226 54.98 848.968 43.817 828.26 C 18.756 781.768 19.619 734.702 44.576 688.468 C 55.57 668.102 67.578 648.161 80.641 629.064 C 101.345 598.796 109.082 566.033 106.08 529.658 C 104.145 506.207 104.087 482.501 104.763 458.955 C 106.16 410.315 127.544 371.998 168.358 345.561 C 188.087 332.781 208.626 320.839 229.954 311.03 C 266.812 294.079 292.057 267.257 309.232 230.79 C 320.398 207.082 333.586 184.013 348.441 162.429 C 372.632 127.278 407.685 108.709 450.128 106.574 C 478.726 105.135 507.499 106.131 536.154 107.152 C 564.029 108.144 589.935 103.248 613.758 88.017 C 636.591 73.418 659.481 58.823 683.078 45.526 C 730.604 18.746 779.111 18.236 827.081 44.188 C 849.854 56.508 871.794 70.445 893.623 84.414 C 917.209 99.509 942.44 107.317 970.573 105.985 C 994.912 104.833 1019.277 103.984 1043.64 103.643 C 1103.625 102.802 1148.841 128.309 1178.403 180.693 C 1189.792 200.875 1201.007 221.186 1211.413 241.886 C 1224.422 267.763 1243.424 287.184 1269.24 300.258 C 1288.864 310.197 1308.313 320.49 1327.697 330.892 C 1385.37 361.842 1412.64 410.263 1410.597 475.525 C 1409.81 500.667 1409.353 525.819 1408.758 550.967 C 1408.228 573.332 1415.109 593.496 1426.921 612.213 C 1439.503 632.15 1452.225 652.001 1464.545 672.099 C 1498.889 728.126 1498.339 784.238 1464.336 840.203 C 1455.36 854.976 1446.939 870.195 1436.758 884.108 C 1413.135 916.389 1406.521 952.239 1410.05 991.312 C 1411.919 1012.003 1411.806 1032.949 1411.382 1053.755 C 1410.322 1105.817 1387.015 1145.736 1342.847 1172.874 C 1321.792 1185.812 1299.953 1197.619 1277.804 1208.597 C 1247.668 1223.533 1226.023 1245.921 1211.265 1276.019 C 1200.385 1298.207 1188.673 1320.082 1175.874 1341.213 C 1148.612 1386.222 1107.36 1408.22 1055.385 1409.724 C 1031.069 1410.428 1006.639 1409.408 982.34 1407.9 C 948.726 1405.813 919.028 1415.164 891.242 1433.801 C 862.262 1453.24 833.631 1473.665 799.49 1483.744 C 791.259 1486.174 782.949 1488.338 774.676 1490.624 C 764.451 1490.622 754.227 1490.622 744.004 1490.622 Z" fill="#d90011"/>
      </g>
      <g id="Group_3">
        <g id="Graphic_10">
          <path d="M 385.5 985.134 C 369.179 990.573 342.939 997.294 315.738 997.294 C 286.297 997.294 261.656 989.613 244.056 973.613 C 226.776 958.573 216.855 934.572 216.855 907.051 C 216.855 866.73 233.175 831.849 260.696 808.489 C 285.017 788.329 318.617 777.129 356.058 777.129 C 383.899 777.129 404.699 782.568 413.019 786.729 L 399.259 825.451 C 389.658 820.971 372.698 816.81 353.498 816.81 C 332.058 816.81 313.177 822.89 298.777 834.09 C 279.897 848.811 267.416 874.411 267.416 903.852 C 267.416 940.013 288.856 958.253 322.777 958.253 C 333.657 958.253 341.018 956.652 346.458 954.413 L 355.098 908.972 L 321.497 908.972 L 328.857 872.171 L 407.259 872.171 Z" fill="white"/>
        </g>
        <g id="Graphic_9">
          <path d="M 405.012 995.054 L 422.613 901.932 C 427.093 878.251 429.013 852.011 430.613 838.571 L 470.614 838.571 C 469.654 849.132 469.014 859.691 467.734 870.572 L 468.694 870.572 C 479.894 849.771 497.174 835.051 518.615 835.051 C 521.495 835.051 524.375 835.051 527.255 835.371 L 518.295 880.172 C 516.055 879.853 513.495 879.853 510.935 879.853 C 481.494 879.853 467.734 906.093 461.974 936.814 L 451.094 995.055 L 405.012 995.055 Z" fill="white"/>
        </g>
        <g id="Graphic_8">
          <path d="M 607.257 995.054 C 607.577 985.774 608.537 975.213 609.177 964.013 L 608.537 964.013 C 594.137 989.934 573.976 998.575 555.736 998.575 C 527.575 998.575 508.375 976.814 508.375 944.174 C 508.375 891.372 543.576 835.051 620.378 835.051 C 639.258 835.051 659.099 838.572 672.219 842.732 L 655.899 924.654 C 652.059 944.814 648.859 975.535 649.499 995.055 L 607.257 995.055 Z M 620.377 871.211 C 616.856 870.571 612.697 869.931 607.897 869.931 C 578.136 869.931 556.376 906.412 556.376 935.533 C 556.376 950.893 562.456 961.454 575.256 961.454 C 589.016 961.454 605.977 945.773 613.337 907.373 Z" fill="white"/>
        </g>
        <g id="Graphic_7">
          <path d="M 654.606 1058.415 L 685.007 899.052 C 688.527 880.491 692.047 853.29 693.967 837.29 L 735.248 837.29 L 732.368 861.291 L 733.008 861.291 C 745.808 844.33 764.368 835.05 783.249 835.05 C 817.169 835.05 833.81 862.251 833.81 894.571 C 833.81 948.652 797.649 998.574 742.928 998.574 C 730.448 998.574 719.568 995.374 714.128 992.174 L 713.168 992.174 L 700.688 1058.415 Z M 720.528 956.333 C 725.648 960.812 732.368 963.693 741.649 963.693 C 766.29 963.693 785.49 928.812 785.49 898.091 C 785.49 885.611 780.05 872.49 765.33 872.49 C 748.049 872.49 732.049 891.69 726.289 922.411 Z" fill="white"/>
        </g>
        <g id="Graphic_6">
          <path d="M 831.246 995.054 L 874.447 767.849 L 920.528 767.849 L 902.927 858.731 L 903.567 858.731 C 916.687 844.331 933.007 835.05 953.488 835.05 C 977.809 835.05 992.849 850.41 992.849 877.291 C 992.849 884.651 991.569 896.491 989.969 905.451 L 973.009 995.054 L 926.928 995.054 L 943.248 909.292 C 944.528 903.212 945.168 896.491 945.168 890.092 C 945.168 879.531 941.008 872.171 929.488 872.171 C 913.168 872.171 896.847 892.012 891.087 923.372 L 877.327 995.054 L 831.246 995.054 Z" fill="white"/>
        </g>
        <g id="Graphic_5">
          <path d="M 1177.486 1033.775 C 1148.046 1025.135 1116.045 1012.655 1096.844 1003.375 C 1086.604 998.895 1083.724 997.935 1081.484 997.935 C 1039.563 995.055 1006.602 962.414 1006.602 908.013 C 1006.602 871.533 1019.722 833.771 1044.043 808.811 C 1065.483 787.371 1094.604 775.85 1125.325 775.85 C 1183.566 775.85 1212.047 817.771 1212.047 865.772 C 1212.047 902.253 1198.927 941.294 1175.887 964.655 C 1167.246 972.975 1156.366 980.655 1144.206 985.455 L 1144.206 986.415 C 1157.326 989.936 1175.246 994.096 1193.487 997.296 Z M 1082.764 830.25 C 1065.163 847.851 1055.563 883.051 1055.563 908.012 C 1055.563 938.412 1069.643 960.493 1100.364 960.493 C 1114.445 960.493 1126.605 954.413 1136.525 944.812 C 1153.166 927.852 1163.086 892.011 1163.086 866.09 C 1163.086 841.77 1153.806 814.249 1119.885 814.249 C 1105.165 814.25 1092.684 820.33 1082.764 830.25 Z" fill="white"/>
        </g>
        <g id="Graphic_4">
          <path d="M 1247.878 779.369 L 1293.959 779.369 L 1260.679 954.732 L 1343.561 954.732 L 1335.88 995.053 L 1206.917 995.053 Z" fill="white"/>
        </g>
      </g>
      <g id="Group_11">
        <g id="Group_42">
          <g id="Group_43">
            <g id="Graphic_44">
              <path d="M 291.46005 598.1445 L 470.58455 287.90087 L 486.66357 297.18437 L 307.53907 607.428 Z" fill="white"/>
            </g>
          </g>
        </g>
        <g id="Group_39">
          <g id="Group_40">
            <g id="Graphic_41">
              <rect x="287.789" y="573.359" width="358.257" height="18.567" fill="white"/>
            </g>
          </g>
        </g>
        <g id="Group_36">
          <g id="Group_37">
            <g id="Graphic_38">
              <path d="M 294.86375 583.79176 L 304.14725 567.71273 L 483.3391 671.1722 L 474.0556 687.25126 Z" fill="white"/>
            </g>
          </g>
        </g>
        <g id="Group_33">
          <g id="Group_34">
            <g id="Graphic_35">
              <path d="M 450.5351 314.14907 L 459.8186 298.07005 L 639.0104 401.52955 L 629.72694 417.60857 Z" fill="white"/>
            </g>
          </g>
        </g>
        <g id="Group_30">
          <g id="Group_31">
            <g id="Graphic_32">
              <path d="M 294.91843 401.4501 L 474.1103 297.9906 L 483.3938 314.06964 L 304.20193 417.52914 Z" fill="white"/>
            </g>
          </g>
        </g>
        <g id="Group_27">
          <g id="Group_28">
            <g id="Graphic_29">
              <path d="M 447.2951 297.18184 L 463.37414 287.89834 L 642.4986 598.142 L 626.4196 607.4255 Z" fill="white"/>
            </g>
          </g>
        </g>
        <g id="Group_24">
          <g id="Group_25">
            <g id="Graphic_26">
              <rect x="301.994" y="389.141" width="18.567" height="206.924" fill="white"/>
            </g>
          </g>
        </g>
        <g id="Group_21">
          <g id="Group_22">
            <g id="Graphic_23">
              <rect x="613.386" y="389.141" width="18.567" height="206.924" fill="white"/>
            </g>
          </g>
        </g>
        <g id="Group_18">
          <g id="Group_19">
            <g id="Graphic_20">
              <path d="M 462.78783 665.34075 L 618.63666 575.35875 L 626.74566 589.40354 L 470.89683 679.38554 Z" fill="white"/>
            </g>
          </g>
        </g>
        <g id="Graphic_17">
          <path d="M 656.56 602.105 C 645.822 620.784 621.886 627.16 603.207 616.422 C 584.528 605.684 578.152 581.748 588.89 563.069 C 599.628 544.39 623.564 538.014 642.243 548.752 C 661.034 559.602 667.41 583.426 656.56 602.105" fill="white"/>
        </g>
        <g id="Graphic_16">
          <path d="M 344.945 422.137 C 334.207 440.816 310.271 447.192 291.592 436.454 C 272.913 425.716 266.537 401.78 277.275 383.101 C 288.013 364.422 311.949 358.046 330.628 368.784 C 349.307 379.634 355.682 403.458 344.945 422.137" fill="white"/>
        </g>
        <g id="Graphic_15">
          <path d="M 277.387 602.105 C 266.649 583.426 273.025 559.602 291.704 548.752 C 310.383 538.014 334.207 544.39 345.057 563.069 C 355.795 581.748 349.419 605.572 330.74 616.422 C 311.949 627.159 288.124 620.784 277.387 602.105" fill="white"/>
        </g>
        <g id="Graphic_14">
          <path d="M 589.002 422.137 C 578.264 403.458 584.64 379.634 603.319 368.784 C 621.998 358.046 645.822 364.422 656.672 383.101 C 667.41 401.78 661.034 425.604 642.355 436.454 C 623.676 447.192 599.74 440.816 589.002 422.137" fill="white"/>
        </g>
        <g id="Graphic_13">
          <path d="M 466.974 711.607 C 445.387 711.607 427.938 694.158 427.938 672.571 C 427.938 650.984 445.387 633.535 466.974 633.535 C 488.561 633.535 506.01 650.984 506.01 672.571 C 506.009 694.046 488.561 711.607 466.974 711.607" fill="white"/>
        </g>
        <g id="Graphic_12">
          <path d="M 466.974 351.671 C 445.387 351.671 427.938 334.222 427.938 312.635 C 427.938 291.048 445.387 273.599 466.974 273.599 C 488.561 273.599 506.01 291.048 506.01 312.635 C 506.01 334.222 488.561 351.671 466.974 351.671" fill="white"/>
        </g>
      </g>
      <g id="Graphic_45">
        <path d="M 717.321 992.076 L 667.291 1255.514 L 616.89 1255.514 L 667.422 989.431 Z" fill="white"/>
      </g>
      <g id="Graphic_46">
        <path d="M 931.19 1114.111 C 931.19 1157.162 916.14 1199.163 889.189 1225.413 C 867.139 1246.764 837.388 1259.363 802.038 1259.363 C 740.787 1259.363 706.486 1215.963 706.486 1161.011 C 706.486 1118.311 722.236 1075.96 749.887 1049.36 C 771.937 1028.36 802.038 1015.759 835.989 1015.759 C 898.29 1015.759 931.19 1057.76 931.19 1114.111 Z M 789.438 1075.61 C 770.538 1094.161 760.037 1130.911 760.037 1159.261 C 760.037 1192.512 775.087 1217.363 809.388 1217.363 C 824.438 1217.363 838.088 1211.062 848.939 1200.213 C 867.489 1181.662 877.639 1142.812 877.639 1115.511 C 877.639 1086.111 867.139 1057.76 830.038 1057.76 C 814.288 1057.76 800.288 1064.41 789.438 1075.61 Z" fill="white"/>
      </g>
      <g id="Group_47">
        <g id="Group_78">
          <g id="Group_79">
            <g id="Graphic_80">
              <path d="M 874.7328 598.1524 L 1053.8574 287.90875 L 1069.9364 297.19225 L 890.8119 607.4359 Z" fill="white"/>
            </g>
          </g>
        </g>
        <g id="Group_75">
          <g id="Group_76">
            <g id="Graphic_77">
              <rect x="871.068" y="573.356" width="358.257" height="18.567" fill="white"/>
            </g>
          </g>
        </g>
        <g id="Group_72">
          <g id="Group_73">
            <g id="Graphic_74">
              <path d="M 878.1358 583.79924 L 887.4193 567.7202 L 1066.6111 671.1797 L 1057.3276 687.25874 Z" fill="white"/>
            </g>
          </g>
        </g>
        <g id="Group_69">
          <g id="Group_70">
            <g id="Graphic_71">
              <path d="M 1033.807 314.15645 L 1043.0905 298.07743 L 1222.2824 401.53693 L 1212.9989 417.61595 Z" fill="white"/>
            </g>
          </g>
        </g>
        <g id="Group_66">
          <g id="Group_67">
            <g id="Graphic_68">
              <path d="M 878.1865 401.4534 L 1057.3784 297.9939 L 1066.6619 314.07294 L 887.47 417.53244 Z" fill="white"/>
            </g>
          </g>
        </g>
        <g id="Group_63">
          <g id="Group_64">
            <g id="Graphic_65">
              <path d="M 1030.5632 297.18524 L 1046.6422 287.90174 L 1225.7668 598.1454 L 1209.6877 607.4289 Z" fill="white"/>
            </g>
          </g>
        </g>
        <g id="Group_60">
          <g id="Group_61">
            <g id="Graphic_62">
              <rect x="885.273" y="389.138" width="18.567" height="206.924" fill="white"/>
            </g>
          </g>
        </g>
        <g id="Group_57">
          <g id="Group_58">
            <g id="Graphic_59">
              <rect x="1196.665" y="389.138" width="18.567" height="206.924" fill="white"/>
            </g>
          </g>
        </g>
        <g id="Group_54">
          <g id="Group_55">
            <g id="Graphic_56">
              <path d="M 1046.0558 665.34406 L 1201.9047 575.36206 L 1210.0137 589.40684 L 1054.1648 679.38884 Z" fill="white"/>
            </g>
          </g>
        </g>
        <g id="Graphic_53">
          <path d="M 1239.839 602.101 C 1229.101 620.78 1205.165 627.156 1186.486 616.418 C 1167.807 605.68 1161.431 581.744 1172.169 563.065 C 1182.907 544.386 1206.843 538.01 1225.522 548.748 C 1244.313 559.598 1250.689 583.422 1239.839 602.101" fill="white"/>
        </g>
        <g id="Graphic_52">
          <path d="M 928.224 422.134 C 917.486 440.813 893.55 447.189 874.871 436.451 C 856.192 425.713 849.816 401.777 860.554 383.098 C 871.292 364.419 895.228 358.043 913.907 368.781 C 932.586 379.631 938.961 403.455 928.224 422.134" fill="white"/>
        </g>
        <g id="Graphic_51">
          <path d="M 860.666 602.101 C 849.928 583.422 856.304 559.598 874.983 548.748 C 893.662 538.01 917.486 544.386 928.336 563.065 C 939.074 581.744 932.698 605.568 914.019 616.418 C 895.228 627.156 871.403 620.781 860.666 602.101" fill="white"/>
        </g>
        <g id="Graphic_50">
          <path d="M 1172.281 422.134 C 1161.543 403.455 1167.919 379.631 1186.598 368.781 C 1205.277 358.043 1229.101 364.419 1239.951 383.098 C 1250.689 401.777 1244.313 425.601 1225.634 436.451 C 1206.955 447.188 1183.019 440.813 1172.281 422.134" fill="white"/>
        </g>
        <g id="Graphic_49">
          <path d="M 1050.252 711.603 C 1028.665 711.603 1011.216 694.154 1011.216 672.567 C 1011.216 650.98 1028.665 633.531 1050.252 633.531 C 1071.839 633.531 1089.288 650.98 1089.288 672.567 C 1089.288 694.043 1071.84 711.603 1050.252 711.603" fill="white"/>
        </g>
        <g id="Graphic_48">
          <path d="M 1050.252 351.668 C 1028.665 351.668 1011.216 334.219 1011.216 312.632 C 1011.216 291.045 1028.665 273.596 1050.252 273.596 C 1071.839 273.596 1089.288 291.045 1089.288 312.632 C 1089.288 334.219 1071.84 351.668 1050.252 351.668" fill="white"/>
        </g>
      </g>
      <g id="Graphic_81">
        <path d="M 895.774 585.027 L 622.918 585.027 L 622.918 493.822 L 623.063 402.616 L 895.774 402.616 L 895.629 493.822 Z" fill="white"/>
      </g>
      <g id="Group_82">
        <g id="Graphic_85">
          <path d="M 741.633 540.99 C 737.883 542.94 728.283 545.19 716.284 545.19 C 678.486 545.19 661.836 521.64 661.836 494.641 C 661.836 458.943 687.935 440.793 718.084 440.793 C 729.633 440.793 739.083 443.043 743.283 445.293 L 738.033 466.592 C 733.683 464.792 727.383 462.992 719.283 462.992 C 703.834 462.992 690.334 472.141 690.334 492.841 C 690.334 511.29 701.284 522.69 719.883 522.69 C 726.333 522.69 733.682 521.491 737.882 519.84 Z" fill="#dd1c21"/>
        </g>
        <g id="Graphic_84">
          <path d="M 743.135 549.389 L 771.033 440.644 L 788.283 440.644 L 760.384 549.389 Z" fill="#dd1c21"/>
        </g>
        <g id="Graphic_83">
          <path d="M 792.033 516.541 C 798.183 519.691 808.082 522.841 818.282 522.841 C 827.581 522.841 832.081 519.692 832.081 514.591 C 832.081 509.642 827.581 506.792 816.182 502.892 C 799.083 496.892 787.683 487.443 787.683 472.444 C 787.683 454.594 802.832 440.795 828.331 440.795 C 840.331 440.795 849.03 443.045 855.63 446.045 L 849.93 467.645 C 845.58 465.695 838.08 462.845 828.031 462.845 C 819.781 462.845 815.281 465.844 815.281 470.344 C 815.281 475.444 820.681 477.544 833.43 482.194 C 851.579 488.944 859.679 498.693 859.679 512.793 C 859.679 530.192 846.18 545.042 816.631 545.042 C 804.481 545.042 792.632 541.892 786.932 538.893 Z" fill="#dd1c21"/>
        </g>
      </g>
    </g>
    <g id="Canvas_1: Layer 2">
      <title>Layer 2</title>
      <g id="Graphic_86">
        <rect x="43" y="-593" width="2e3" height="3602" id="path"/>
        <clipPath id="clip_path">
          <use xl:href="#path"/>
        </clipPath>
        <g clip-path="url(#clip_path)">
          <image xl:href="image1.tiff" width="2e3" height="3602" opacity="1" transform="translate(943 1027.9) scale(.1)"/>
        </g>
      </g>
    </g>
  </g>
</svg>
